HIERARCHY
ROOT hip
{
	OFFSET 0.000000 0.000000 0.000000
	CHANNELS 6 Xposition Yposition Zposition Xrotation Zrotation Yrotation 
	JOINT abdomen
	{
		OFFSET 0.000000 3.422050 0.000000
		CHANNELS 3 Xrotation Zrotation Yrotation 
		JOINT chest
		{
			OFFSET 0.000000 8.486693 -0.684411
			CHANNELS 3 Xrotation Zrotation Yrotation 
			JOINT neck
			{
				OFFSET 0.000000 10.266162 -0.273764
				CHANNELS 3 Xrotation Zrotation Yrotation 
				JOINT head
				{
					OFFSET 0.000000 3.148285 0.000000
					CHANNELS 3 Xrotation Zrotation Yrotation 
					End Site
					{
						OFFSET 0.000000 3.148289 0.000000
					}
				}
			}
			JOINT lCollar
			{
				OFFSET 3.422053 6.707223 -0.821293
				CHANNELS 3 Yrotation Zrotation Xrotation 
				JOINT lShldr
				{
					OFFSET 3.285171 0.000000 0.000000
					CHANNELS 3 Zrotation Yrotation Xrotation 
					JOINT lForeArm
					{
						OFFSET 10.129278 0.000000 0.000000
						CHANNELS 3 Yrotation Zrotation Xrotation 
						JOINT lHand
						{
							OFFSET 8.486692 0.000000 0.000000
							CHANNELS 3 Zrotation Yrotation Xrotation 
							End Site
							{
								OFFSET 4.106464 0.000000 0.000000
							}
						}
					}
				}
			}
			JOINT rCollar
			{
				OFFSET -3.558935 6.707223 -0.821293
				CHANNELS 3 Yrotation Zrotation Xrotation 
				JOINT rShldr
				{
					OFFSET -3.148289 0.000000 0.000000
					CHANNELS 3 Zrotation Yrotation Xrotation 
					JOINT rForeArm
					{
						OFFSET -10.266159 0.000000 0.000000
						CHANNELS 3 Yrotation Zrotation Xrotation 
						JOINT rHand
						{
							OFFSET -8.349810 0.000000 0.000000
							CHANNELS 3 Zrotation Yrotation Xrotation 
							End Site
							{
								OFFSET -4.106464 0.000000 0.000000
							}
						}
					}
				}
			}
		}
	}
	JOINT lThigh
	{
		OFFSET 5.338403 -1.642589 1.368821
		CHANNELS 3 Xrotation Zrotation Yrotation 
		JOINT lShin
		{
			OFFSET -2.053232 -20.121670 0.000000
			CHANNELS 3 Xrotation Zrotation Yrotation 
			JOINT lFoot
			{
				OFFSET 0.000000 -19.300380 -1.231939
				CHANNELS 3 Xrotation Yrotation Zrotation 
				End Site
				{
					OFFSET 0.000000 -2.463878 4.653993
				}
			}
		}
	}
	JOINT rThigh
	{
		OFFSET -5.338403 -1.642589 1.368821
		CHANNELS 3 Xrotation Zrotation Yrotation 
		JOINT rShin
		{
			OFFSET 2.053232 -20.121670 0.000000
			CHANNELS 3 Xrotation Zrotation Yrotation 
			JOINT rFoot
			{
				OFFSET 0.000000 -19.300380 -1.231939
				CHANNELS 3 Xrotation Yrotation Zrotation 
				End Site
				{
					OFFSET 0.000000 -2.463878 4.653993
				}
			}
		}
	}
}
MOTION
Frames: 10
Frame Time: 0.050000
0.000000 43.528500 0.000000 0.000000 0.000000 0.000000 0.000000 0.000000 0.000000 0.000000 0.000000 0.000000 0.000000 0.000000 0.000000 0.000000 0.000000 0.000000 0.000000 0.000000 0.000000 0.000000 0.000000 0.000000 0.000000 0.000000 0.000000 0.000000 0.000000 0.000000 0.000000 0.000000 0.000000 0.000000 0.000000 0.000000 0.000000 0.000000 0.000000 0.000000 0.000000 0.000000 0.000000 0.000000 0.000000 0.000000 0.000000 0.000000 0.000000 0.000000 0.000000 0.000000 0.000000 0.000000 0.000000 0.000000 0.000000 0.000000 0.000000 0.000000 
-1.342670 24.740120 -13.447739 -9.005580 0.000000 0.000000 41.519897 -0.087983 -0.177336 28.642189 0.546438 -0.295423 29.000843 0.446588 -0.001895 -6.837879 4.528685 -0.009498 -37.426361 4.107202 15.665035 -29.157242 -11.899733 -51.583057 -124.115921 5.041795 44.271511 2.818823 -17.134378 -28.866459 16.998699 2.420422 14.393479 52.134762 42.508926 -45.320385 49.583988 55.809128 14.472186 18.582230 -22.042465 -8.199517 1.189903 14.464944 6.434556 92.508018 4.963047 -6.931787 57.363235 14.892368 9.390512 0.459120 -15.678393 -6.422470 92.705231 -5.150706 7.003930 57.249741 -14.310865 -10.195795 
-1.342670 24.645849 -13.573433 -9.005581 0.000000 0.000000 41.212372 -0.088021 -0.177516 29.410593 0.546442 -0.295445 29.000843 0.446588 -0.001895 -7.222462 4.528810 -0.009590 -37.138264 5.286912 15.024142 -29.157242 -11.899733 -51.583057 -124.115921 5.041795 44.271511 2.826034 -16.537100 -29.581116 16.148607 1.574415 13.759806 52.929672 42.446472 -44.622967 53.359489 56.831131 11.158445 17.504448 -23.801298 -8.673634 0.721133 14.488059 6.360280 93.079323 5.018853 -6.881231 57.363235 14.892368 9.390512 -0.013756 -15.699942 -6.337959 93.275780 -5.206160 6.950364 57.249741 -14.310865 -10.195795 
-1.342670 24.551577 -13.699127 -9.005579 0.000000 0.000000 40.904816 -0.088060 -0.177696 30.179382 0.546446 -0.295467 29.000843 0.446588 -0.001895 -7.607092 4.528933 -0.009683 -36.835819 6.465158 14.374908 -29.157242 -11.899733 -51.583054 -124.115921 5.041795 44.271507 2.825473 -15.939351 -30.294048 15.288090 0.736631 13.112798 53.722919 42.376877 -43.927296 57.342022 57.727238 7.635764 16.422998 -25.575388 -9.119530 0.252202 14.510583 6.285787 93.650887 5.074167 -6.830100 57.363235 14.892368 9.390512 -0.486797 -15.720816 -6.253240 93.846596 -5.261094 6.896225 57.249737 -14.310865 -10.195794 
-1.342670 24.457306 -13.824821 -9.005580 0.000000 0.000000 40.597240 -0.088101 -0.177875 30.948469 0.546450 -0.295490 29.000843 0.446588 -0.001895 -7.991761 4.529055 -0.009777 -36.518738 7.641399 13.716913 -29.157242 -11.899734 -51.583057 -124.115921 5.041795 44.271511 2.817195 -15.341302 -31.005333 14.417114 -0.092357 12.452481 54.514233 42.300171 -43.233643 61.515499 58.485653 3.920210 15.336580 -27.362904 -9.535954 -0.216872 14.532522 6.211090 94.222694 5.128986 -6.778404 57.363235 14.892368 9.390512 -0.959985 -15.741027 -6.168327 94.417641 -5.315500 6.841523 57.249737 -14.310865 -10.195794 
-1.342670 24.363035 -13.950517 -9.005581 0.000000 0.000000 40.289654 -0.088142 -0.178055 31.717804 0.546455 -0.295512 29.000843 0.446588 -0.001895 -8.376460 4.529177 -0.009872 -36.186718 8.815091 13.049713 -29.157242 -11.899733 -51.583057 -124.115929 5.041794 44.271515 2.801253 -14.743117 -31.715038 13.535626 -0.911977 11.778858 55.303379 42.216373 -42.542225 65.855011 59.095741 0.036697 14.243751 -29.161964 -9.921540 -0.686074 14.553871 6.136195 94.794670 5.183294 -6.726143 57.363235 14.892368 9.390512 -1.433304 -15.760561 -6.083224 94.988892 -5.369370 6.786263 57.249741 -14.310865 -10.195795 
-1.342670 24.268763 -14.076211 -9.005579 0.000000 0.000000 39.982048 -0.088184 -0.178234 32.487312 0.546461 -0.295534 29.000843 0.446588 -0.001895 -8.761182 4.529298 -0.009967 -35.839470 9.985685 12.372874 -29.157242 -11.899733 -51.583057 -124.115921 5.041795 44.271511 2.777708 -14.144978 -32.423256 12.643631 -1.721660 11.091988 56.090134 42.125534 -41.853275 69.479446 60.152977 -3.124810 13.142878 -30.970636 -10.274769 -1.155387 14.574623 6.061107 95.366837 5.237090 -6.673333 57.363228 14.892367 9.390512 -1.906734 -15.779417 -5.997941 95.560303 -5.422695 6.730456 57.249733 -14.310865 -10.195796 
-1.342670 24.174492 -14.201905 -9.005580 0.000000 0.000000 39.674450 -0.088227 -0.178412 33.256927 0.546466 -0.295556 29.000843 0.446588 -0.001895 -9.145916 4.529419 -0.010064 -35.476685 11.152619 11.685943 -29.157242 -11.899733 -51.583057 -124.115921 5.041796 44.271511 2.746611 -13.547038 -33.130028 11.741129 -2.520836 10.391921 56.874264 42.027706 -41.167042 73.337418 61.104675 -6.521514 12.032145 -32.786942 -10.593963 -1.624793 14.594786 5.985836 95.939140 5.290360 -6.619977 57.363235 14.892368 9.390512 -2.380259 -15.797598 -5.912488 96.131851 -5.475466 6.674106 57.249741 -14.310865 -10.195795 
-1.342669 24.080221 -14.327600 -9.005580 0.000000 0.000000 39.366825 -0.088271 -0.178591 34.026577 0.546472 -0.295578 29.000843 0.446588 -0.001895 -9.530655 4.529539 -0.010161 -35.098000 12.315327 10.988453 -29.157242 -11.899733 -51.583057 -124.115921 5.041795 44.271511 2.708022 -12.949480 -33.835453 10.828140 -3.308943 9.678733 57.655548 41.922928 -40.483749 77.421974 61.938999 -10.146506 10.909526 -34.608894 -10.877258 -2.094276 14.614349 5.910388 96.511566 5.343099 -6.566083 57.363235 14.892368 9.390512 -2.853861 -15.815102 -5.826875 96.703529 -5.527678 6.617225 57.249741 -14.310865 -10.195795 
-1.342669 23.985950 -14.453294 -9.005580 0.000000 0.000000 39.059216 -0.088316 -0.178769 34.796188 0.546478 -0.295600 29.000843 0.446588 -0.001895 -9.915390 4.529659 -0.010259 -34.703098 13.473228 10.279938 -29.157244 -11.899734 -51.583065 -124.115921 5.041795 44.271511 2.661999 -12.352470 -34.539597 9.904722 -4.085422 8.952524 58.433731 41.811230 -39.803593 81.717094 62.644535 -13.983790 9.772737 -36.434418 -11.122557 -2.563819 14.633313 5.834774 97.084061 5.395298 -6.511661 57.363235 14.892368 9.390512 -3.327522 -15.831918 -5.741105 97.275299 -5.579320 6.559821 57.249748 -14.310866 -10.195796 
